<svg width="21" height="21" fill="none" xmlns="http://www.w3.org/2000/svg"><path fill="none" d="M-.8-.8h21.6v21.6H-.8z"/><path d="M4.204 2.854c.146-.034.3-.052.46-.052l12.573.898c1.126.02 2.228.954 1.684 2.168-.106.236-.584 1.199-1.345 2.713-.31.619-.63 1.252-.948 1.883l-.308.61-.095.188a2.362 2.362 0 0 1-1.487 1.396l-.133.042H5.521l-1.776-.001c-.512.025-.92.434-.945.901l-.002.846c.031.515.443.926.902.954h.154a2.701 2.701 0 0 1 5.092 0h2.108a2.701 2.701 0 1 1 0 1.8H8.946a2.701 2.701 0 0 1-5.093-.001H3.65C2.226 17.117 1.087 15.978 1 14.5l.001-.945c.071-1.432 1.214-2.578 2.69-2.655l-.882-6.173L2.8 4.6c0-.582-.296-1.273-.636-1.614C2.075 2.898 1.683 2.8 1 2.8V1c1.117 0 1.925.202 2.436.714.302.301.567.698.768 1.14ZM14.292 10.9h-8.69a.153.153 0 0 1-.11-.126l-.883-6.173 12.495.894c-.219.446-.616 1.243-1.136 2.278l-.013.026-.934 1.855-.308.61-.116.23-.044.102a.562.562 0 0 1-.26.304ZM7.3 16.3a.9.9 0 1 1-1.8 0 .9.9 0 0 1 1.8 0Zm6.3.9a.9.9 0 1 0 0-1.8.9.9 0 0 0 0 1.8Z" clip-rule="evenodd" fill="#000" fill-rule="evenodd"/></svg>