<svg width="21" height="21" fill="none" xmlns="http://www.w3.org/2000/svg"><path fill="none" d="M-.8-.8h21.6v21.6H-.8z"/><path d="M10.992 1.626c.963-.47 1.803-.626 3.106-.626 3.334.014 5.802 2.826 5.802 6.408 0 2.734-1.524 5.375-4.364 7.929-1.49 1.34-3.393 2.667-4.756 3.373l-.78.403-.78-.403c-1.363-.706-3.266-2.033-4.756-3.373C1.624 12.783.1 10.142.1 7.407.1 3.788 2.545 1 5.91 1c1.255 0 2.138.17 3.12.655.341.17.662.37.961.601.31-.245.645-.455 1.001-.63ZM18.1 7.408c0 2.142-1.272 4.346-3.768 6.59-1.36 1.224-3.109 2.447-4.332 3.088-1.223-.641-2.972-1.864-4.332-3.087C3.172 11.754 1.9 9.55 1.9 7.408 1.9 4.733 3.595 2.8 5.91 2.8c.998 0 1.613.118 2.322.469.418.207.788.48 1.108.821l.662.707.656-.712a3.776 3.776 0 0 1 1.126-.842c.687-.336 1.264-.443 2.31-.443 2.285.01 4.006 1.97 4.006 4.608Z" clip-rule="evenodd" fill="#000" fill-rule="evenodd"/></svg>